<svg width="19" height="16" viewBox="0 0 19 16" fill="none" xmlns="http://www.w3.org/2000/svg">
<path id="&#239;&#141;&#131;" d="M12.3933 1.8667L18.38 7.64795C18.4603 7.76514 18.5005 7.88232 18.5005 7.99951C18.5005 8.15576 18.4603 8.27295 18.38 8.35107L12.3933 14.0933C12.313 14.2104 12.1925 14.2495 12.0719 14.2495C11.9112 14.2495 11.7907 14.2104 11.7103 14.1323L10.9469 13.3511C10.8264 13.2729 10.7862 13.1558 10.7862 12.9995C10.7862 12.8823 10.8264 12.7651 10.9469 12.687L14.8442 9.01514H4.83977C4.67906 9.01514 4.55852 8.97607 4.47817 8.89795C4.39781 8.81982 4.35763 8.70264 4.35763 8.54639V7.45264C4.35763 7.33545 4.39781 7.21826 4.47817 7.14014C4.55852 7.06201 4.67906 6.98389 4.83977 6.98389H14.8442L10.9469 3.31201C10.8264 3.23389 10.7862 3.15576 10.7862 2.99951C10.7862 2.88232 10.8264 2.76514 10.9469 2.64795L11.7103 1.90576C11.7907 1.82764 11.9112 1.74951 12.0719 1.74951C12.1925 1.74951 12.313 1.78857 12.3933 1.8667ZM2.58977 15.0308V0.968262C2.58977 0.851074 2.50942 0.733887 2.42906 0.655762C2.3487 0.577637 2.22817 0.499512 2.10763 0.499512H0.982631C0.821917 0.499512 0.701381 0.577637 0.621024 0.655762C0.540667 0.733887 0.500488 0.851074 0.500488 0.968262V15.0308C0.500488 15.187 0.540667 15.3042 0.621024 15.3823C0.701381 15.4604 0.821917 15.4995 0.982631 15.4995H2.10763C2.22817 15.4995 2.3487 15.4604 2.42906 15.3823C2.50942 15.3042 2.58977 15.187 2.58977 15.0308Z" fill="white"/>
</svg>
